<svg class="main-svg" xmlns="http://www.w3.org/2000/svg" xmlns:xlink="http://www.w3.org/1999/xlink" width="700" height="500" style="" viewBox="0 0 700 500"><rect x="0" y="0" width="700" height="500" style="fill: rgb(255, 255, 255); fill-opacity: 1;"/><defs id="defs-af3d0a"><g class="clips"><clipPath id="clipaf3d0axyplot" class="plotclip"><rect width="540" height="292"/></clipPath><clipPath class="axesclip" id="clipaf3d0ax"><rect x="80" y="0" width="540" height="500"/></clipPath><clipPath class="axesclip" id="clipaf3d0ay"><rect x="0" y="100" width="700" height="292"/></clipPath><clipPath class="axesclip" id="clipaf3d0axy"><rect x="80" y="100" width="540" height="292"/></clipPath></g><g class="gradients"/><g class="patterns"/></defs><g class="bglayer"><rect class="bg" x="80" y="100" width="540" height="292" style="fill: rgb(229, 236, 246); fill-opacity: 1; stroke-width: 0;"/></g><g class="layer-below"><g class="imagelayer"/><g class="shapelayer"/></g><g class="cartesianlayer"><g class="subplot xy"><g class="layer-subplot"><g class="shapelayer"/><g class="imagelayer"/></g><g class="minor-gridlayer"><g class="x"/><g class="y"/></g><g class="gridlayer"><g class="x"><path class="xgrid crisp" transform="translate(110.75,0)" d="M0,100v292" style="stroke: rgb(255, 255, 255); stroke-opacity: 1; stroke-width: 1px;"/><path class="xgrid crisp" transform="translate(126.49000000000001,0)" d="M0,100v292" style="stroke: rgb(255, 255, 255); stroke-opacity: 1; stroke-width: 1px;"/><path class="xgrid crisp" transform="translate(142.23,0)" d="M0,100v292" style="stroke: rgb(255, 255, 255); stroke-opacity: 1; stroke-width: 1px;"/><path class="xgrid crisp" transform="translate(157.97,0)" d="M0,100v292" style="stroke: rgb(255, 255, 255); stroke-opacity: 1; stroke-width: 1px;"/><path class="xgrid crisp" transform="translate(173.70999999999998,0)" d="M0,100v292" style="stroke: rgb(255, 255, 255); stroke-opacity: 1; stroke-width: 1px;"/><path class="xgrid crisp" transform="translate(189.45,0)" d="M0,100v292" style="stroke: rgb(255, 255, 255); stroke-opacity: 1; stroke-width: 1px;"/><path class="xgrid crisp" transform="translate(205.19,0)" d="M0,100v292" style="stroke: rgb(255, 255, 255); stroke-opacity: 1; stroke-width: 1px;"/><path class="xgrid crisp" transform="translate(220.93,0)" d="M0,100v292" style="stroke: rgb(255, 255, 255); stroke-opacity: 1; stroke-width: 1px;"/><path class="xgrid crisp" transform="translate(236.67,0)" d="M0,100v292" style="stroke: rgb(255, 255, 255); stroke-opacity: 1; stroke-width: 1px;"/><path class="xgrid crisp" transform="translate(252.41,0)" d="M0,100v292" style="stroke: rgb(255, 255, 255); stroke-opacity: 1; stroke-width: 1px;"/><path class="xgrid crisp" transform="translate(268.15,0)" d="M0,100v292" style="stroke: rgb(255, 255, 255); stroke-opacity: 1; stroke-width: 1px;"/><path class="xgrid crisp" transform="translate(283.89,0)" d="M0,100v292" style="stroke: rgb(255, 255, 255); stroke-opacity: 1; stroke-width: 1px;"/><path class="xgrid crisp" transform="translate(299.63,0)" d="M0,100v292" style="stroke: rgb(255, 255, 255); stroke-opacity: 1; stroke-width: 1px;"/><path class="xgrid crisp" transform="translate(315.37,0)" d="M0,100v292" style="stroke: rgb(255, 255, 255); stroke-opacity: 1; stroke-width: 1px;"/><path class="xgrid crisp" transform="translate(331.11,0)" d="M0,100v292" style="stroke: rgb(255, 255, 255); stroke-opacity: 1; stroke-width: 1px;"/><path class="xgrid crisp" transform="translate(346.85,0)" d="M0,100v292" style="stroke: rgb(255, 255, 255); stroke-opacity: 1; stroke-width: 1px;"/><path class="xgrid crisp" transform="translate(362.59,0)" d="M0,100v292" style="stroke: rgb(255, 255, 255); stroke-opacity: 1; stroke-width: 1px;"/><path class="xgrid crisp" transform="translate(378.33,0)" d="M0,100v292" style="stroke: rgb(255, 255, 255); stroke-opacity: 1; stroke-width: 1px;"/><path class="xgrid crisp" transform="translate(394.07,0)" d="M0,100v292" style="stroke: rgb(255, 255, 255); stroke-opacity: 1; stroke-width: 1px;"/><path class="xgrid crisp" transform="translate(409.81,0)" d="M0,100v292" style="stroke: rgb(255, 255, 255); stroke-opacity: 1; stroke-width: 1px;"/><path class="xgrid crisp" transform="translate(425.55,0)" d="M0,100v292" style="stroke: rgb(255, 255, 255); stroke-opacity: 1; stroke-width: 1px;"/><path class="xgrid crisp" transform="translate(441.29,0)" d="M0,100v292" style="stroke: rgb(255, 255, 255); stroke-opacity: 1; stroke-width: 1px;"/><path class="xgrid crisp" transform="translate(457.03,0)" d="M0,100v292" style="stroke: rgb(255, 255, 255); stroke-opacity: 1; stroke-width: 1px;"/><path class="xgrid crisp" transform="translate(472.77,0)" d="M0,100v292" style="stroke: rgb(255, 255, 255); stroke-opacity: 1; stroke-width: 1px;"/><path class="xgrid crisp" transform="translate(488.51,0)" d="M0,100v292" style="stroke: rgb(255, 255, 255); stroke-opacity: 1; stroke-width: 1px;"/><path class="xgrid crisp" transform="translate(504.25,0)" d="M0,100v292" style="stroke: rgb(255, 255, 255); stroke-opacity: 1; stroke-width: 1px;"/><path class="xgrid crisp" transform="translate(519.99,0)" d="M0,100v292" style="stroke: rgb(255, 255, 255); stroke-opacity: 1; stroke-width: 1px;"/><path class="xgrid crisp" transform="translate(535.73,0)" d="M0,100v292" style="stroke: rgb(255, 255, 255); stroke-opacity: 1; stroke-width: 1px;"/><path class="xgrid crisp" transform="translate(551.47,0)" d="M0,100v292" style="stroke: rgb(255, 255, 255); stroke-opacity: 1; stroke-width: 1px;"/><path class="xgrid crisp" transform="translate(567.21,0)" d="M0,100v292" style="stroke: rgb(255, 255, 255); stroke-opacity: 1; stroke-width: 1px;"/><path class="xgrid crisp" transform="translate(582.95,0)" d="M0,100v292" style="stroke: rgb(255, 255, 255); stroke-opacity: 1; stroke-width: 1px;"/></g><g class="y"><path class="ygrid crisp" transform="translate(0,329.44)" d="M80,0h540" style="stroke: rgb(255, 255, 255); stroke-opacity: 1; stroke-width: 1px;"/><path class="ygrid crisp" transform="translate(0,279.78)" d="M80,0h540" style="stroke: rgb(255, 255, 255); stroke-opacity: 1; stroke-width: 1px;"/><path class="ygrid crisp" transform="translate(0,230.11)" d="M80,0h540" style="stroke: rgb(255, 255, 255); stroke-opacity: 1; stroke-width: 1px;"/><path class="ygrid crisp" transform="translate(0,180.44)" d="M80,0h540" style="stroke: rgb(255, 255, 255); stroke-opacity: 1; stroke-width: 1px;"/><path class="ygrid crisp" transform="translate(0,130.77)" d="M80,0h540" style="stroke: rgb(255, 255, 255); stroke-opacity: 1; stroke-width: 1px;"/></g></g><g class="zerolinelayer"><path class="yzl zl crisp" transform="translate(0,379.11)" d="M80,0h540" style="stroke: rgb(255, 255, 255); stroke-opacity: 1; stroke-width: 2px;"/></g><g class="layer-between"><g class="shapelayer"/><g class="imagelayer"/></g><path class="xlines-below"/><path class="ylines-below"/><g class="overlines-below"/><g class="xaxislayer-below"/><g class="yaxislayer-below"/><g class="overaxes-below"/><g class="overplot"><g class="xy" transform="translate(80,100)" clip-path="url(#clipaf3d0axyplot)"><g class="scatterlayer mlayer"><g class="trace scatter tracea8a996" style="stroke-miterlimit: 2; opacity: 1;"><g class="fills"/><g class="errorbars"/><g class="lines"><path class="js-line" d="M30.75,156.68L33.9,162.14L37.05,91.86L40.19,174.06L43.34,110.98L46.49,209.58L49.64,141.03L52.79,51.88L55.93,225.47L59.08,125.14L62.23,120.67L65.38,103.28L68.53,96.08L71.67,105.27L74.82,141.78L77.97,249.56L81.12,77.7L84.27,131.1L87.41,160.65L90.56,98.57L93.71,157.92L96.86,50.39L100.01,217.77L103.15,180.77L106.3,173.57L109.45,226.71L112.6,253.29L115.75,255.52L118.89,150.97L125.19,177.29L128.34,162.64L131.49,76.71L134.63,236.89L137.78,131.6L140.93,122.16L144.08,131.84L147.23,159.66" style="vector-effect: none; fill: none; stroke: rgb(231, 76, 60); stroke-opacity: 1; stroke-width: 2px; opacity: 1;"/><path class="js-line" d="M150.38,121.66L153.52,137.06L156.67,130.35L159.82,241.12L162.97,130.6L166.12,136.07L169.26,225.72L172.41,152.95L175.56,196.17L178.71,229.2L181.86,190.21L185,108.25L188.15,122.9L191.3,100.8L194.45,156.43L197.6,94.34L200.74,152.95L203.89,255.77L207.04,179.28L210.19,166.61L213.34,118.43L216.48,255.77L219.63,166.12L222.78,151.22L225.93,237.14L229.08,96.08L232.22,130.6L235.37,225.47L238.52,106.76L241.67,107.75L244.82,218.77L247.96,120.42L251.11,100.3L254.26,187.47L257.41,183.25L260.56,185.98L263.7,164.87L266.85,156.43L270,142.27L273.15,265.7L276.3,225.97L279.44,117.69L282.59,49.64L285.74,110.49L288.89,223.98L292.04,165.62L295.18,249.31L298.33,217.03L301.48,170.59L304.63,245.34L307.78,164.63L310.92,126.13L314.07,248.82L317.22,117.19L320.37,248.32L323.52,146.99L326.66,136.81L329.81,150.97L332.96,204.36L336.11,146.75L339.26,138.05L342.4,161.4L345.55,238.88L348.7,78.2L351.85,234.41L355,204.61L358.14,224.97L361.29,174.06L364.44,211.32L370.74,150.47L373.88,156.68L377.03,142.52L380.18,122.16L383.33,151.22L386.48,207.59L389.63,158.91L392.77,130.35L395.92,150.72L399.07,207.59L402.22,182.01L405.37,172.82L408.51,109L411.66,159.91L414.81,109.74L417.96,175.06L421.11,227.95L424.25,140.78L427.4,227.95L430.55,87.14L433.7,156.18L436.85,245.34L439.99,154.2L443.14,108.25L446.29,243.6L449.44,62.56L452.59,145.01L455.73,18.35L458.88,210.07L462.03,107.01L465.18,118.93L468.33,261.73L471.47,173.32L474.62,42.19L477.77,125.39L480.92,103.28L484.07,171.08L487.21,165.12L490.36,129.61L493.51,252.04L496.66,141.03L499.81,219.26L502.95,153.45L506.1,158.91L509.25,239.63" style="vector-effect: none; fill: none; stroke: rgb(231, 76, 60); stroke-opacity: 1; stroke-width: 2px; opacity: 1;"/></g><g class="points"><path class="point" transform="translate(30.75,156.68)" d="M3,0A3,3 0 1,1 0,-3A3,3 0 0,1 3,0Z" style="opacity: 1; stroke-width: 0px; fill: rgb(231, 76, 60); fill-opacity: 1;"/><path class="point" transform="translate(33.9,162.14)" d="M3,0A3,3 0 1,1 0,-3A3,3 0 0,1 3,0Z" style="opacity: 1; stroke-width: 0px; fill: rgb(231, 76, 60); fill-opacity: 1;"/><path class="point" transform="translate(37.05,91.86)" d="M3,0A3,3 0 1,1 0,-3A3,3 0 0,1 3,0Z" style="opacity: 1; stroke-width: 0px; fill: rgb(231, 76, 60); fill-opacity: 1;"/><path class="point" transform="translate(40.19,174.06)" d="M3,0A3,3 0 1,1 0,-3A3,3 0 0,1 3,0Z" style="opacity: 1; stroke-width: 0px; fill: rgb(231, 76, 60); fill-opacity: 1;"/><path class="point" transform="translate(43.34,110.98)" d="M3,0A3,3 0 1,1 0,-3A3,3 0 0,1 3,0Z" style="opacity: 1; stroke-width: 0px; fill: rgb(231, 76, 60); fill-opacity: 1;"/><path class="point" transform="translate(46.49,209.58)" d="M3,0A3,3 0 1,1 0,-3A3,3 0 0,1 3,0Z" style="opacity: 1; stroke-width: 0px; fill: rgb(231, 76, 60); fill-opacity: 1;"/><path class="point" transform="translate(49.64,141.03)" d="M3,0A3,3 0 1,1 0,-3A3,3 0 0,1 3,0Z" style="opacity: 1; stroke-width: 0px; fill: rgb(231, 76, 60); fill-opacity: 1;"/><path class="point" transform="translate(52.79,51.88)" d="M3,0A3,3 0 1,1 0,-3A3,3 0 0,1 3,0Z" style="opacity: 1; stroke-width: 0px; fill: rgb(231, 76, 60); fill-opacity: 1;"/><path class="point" transform="translate(55.93,225.47)" d="M3,0A3,3 0 1,1 0,-3A3,3 0 0,1 3,0Z" style="opacity: 1; stroke-width: 0px; fill: rgb(231, 76, 60); fill-opacity: 1;"/><path class="point" transform="translate(59.08,125.14)" d="M3,0A3,3 0 1,1 0,-3A3,3 0 0,1 3,0Z" style="opacity: 1; stroke-width: 0px; fill: rgb(231, 76, 60); fill-opacity: 1;"/><path class="point" transform="translate(62.23,120.67)" d="M3,0A3,3 0 1,1 0,-3A3,3 0 0,1 3,0Z" style="opacity: 1; stroke-width: 0px; fill: rgb(231, 76, 60); fill-opacity: 1;"/><path class="point" transform="translate(65.38,103.28)" d="M3,0A3,3 0 1,1 0,-3A3,3 0 0,1 3,0Z" style="opacity: 1; stroke-width: 0px; fill: rgb(231, 76, 60); fill-opacity: 1;"/><path class="point" transform="translate(68.53,96.08)" d="M3,0A3,3 0 1,1 0,-3A3,3 0 0,1 3,0Z" style="opacity: 1; stroke-width: 0px; fill: rgb(231, 76, 60); fill-opacity: 1;"/><path class="point" transform="translate(71.67,105.27)" d="M3,0A3,3 0 1,1 0,-3A3,3 0 0,1 3,0Z" style="opacity: 1; stroke-width: 0px; fill: rgb(231, 76, 60); fill-opacity: 1;"/><path class="point" transform="translate(74.82,141.78)" d="M3,0A3,3 0 1,1 0,-3A3,3 0 0,1 3,0Z" style="opacity: 1; stroke-width: 0px; fill: rgb(231, 76, 60); fill-opacity: 1;"/><path class="point" transform="translate(77.97,249.56)" d="M3,0A3,3 0 1,1 0,-3A3,3 0 0,1 3,0Z" style="opacity: 1; stroke-width: 0px; fill: rgb(231, 76, 60); fill-opacity: 1;"/><path class="point" transform="translate(81.12,77.7)" d="M3,0A3,3 0 1,1 0,-3A3,3 0 0,1 3,0Z" style="opacity: 1; stroke-width: 0px; fill: rgb(231, 76, 60); fill-opacity: 1;"/><path class="point" transform="translate(84.27,131.1)" d="M3,0A3,3 0 1,1 0,-3A3,3 0 0,1 3,0Z" style="opacity: 1; stroke-width: 0px; fill: rgb(231, 76, 60); fill-opacity: 1;"/><path class="point" transform="translate(87.41,160.65)" d="M3,0A3,3 0 1,1 0,-3A3,3 0 0,1 3,0Z" style="opacity: 1; stroke-width: 0px; fill: rgb(231, 76, 60); fill-opacity: 1;"/><path class="point" transform="translate(90.56,98.57)" d="M3,0A3,3 0 1,1 0,-3A3,3 0 0,1 3,0Z" style="opacity: 1; stroke-width: 0px; fill: rgb(231, 76, 60); fill-opacity: 1;"/><path class="point" transform="translate(93.71,157.92)" d="M3,0A3,3 0 1,1 0,-3A3,3 0 0,1 3,0Z" style="opacity: 1; stroke-width: 0px; fill: rgb(231, 76, 60); fill-opacity: 1;"/><path class="point" transform="translate(96.86,50.39)" d="M3,0A3,3 0 1,1 0,-3A3,3 0 0,1 3,0Z" style="opacity: 1; stroke-width: 0px; fill: rgb(231, 76, 60); fill-opacity: 1;"/><path class="point" transform="translate(100.01,217.77)" d="M3,0A3,3 0 1,1 0,-3A3,3 0 0,1 3,0Z" style="opacity: 1; stroke-width: 0px; fill: rgb(231, 76, 60); fill-opacity: 1;"/><path class="point" transform="translate(103.15,180.77)" d="M3,0A3,3 0 1,1 0,-3A3,3 0 0,1 3,0Z" style="opacity: 1; stroke-width: 0px; fill: rgb(231, 76, 60); fill-opacity: 1;"/><path class="point" transform="translate(106.3,173.57)" d="M3,0A3,3 0 1,1 0,-3A3,3 0 0,1 3,0Z" style="opacity: 1; stroke-width: 0px; fill: rgb(231, 76, 60); fill-opacity: 1;"/><path class="point" transform="translate(109.45,226.71)" d="M3,0A3,3 0 1,1 0,-3A3,3 0 0,1 3,0Z" style="opacity: 1; stroke-width: 0px; fill: rgb(231, 76, 60); fill-opacity: 1;"/><path class="point" transform="translate(112.6,253.29)" d="M3,0A3,3 0 1,1 0,-3A3,3 0 0,1 3,0Z" style="opacity: 1; stroke-width: 0px; fill: rgb(231, 76, 60); fill-opacity: 1;"/><path class="point" transform="translate(115.75,255.52)" d="M3,0A3,3 0 1,1 0,-3A3,3 0 0,1 3,0Z" style="opacity: 1; stroke-width: 0px; fill: rgb(231, 76, 60); fill-opacity: 1;"/><path class="point" transform="translate(118.89,150.97)" d="M3,0A3,3 0 1,1 0,-3A3,3 0 0,1 3,0Z" style="opacity: 1; stroke-width: 0px; fill: rgb(231, 76, 60); fill-opacity: 1;"/><path class="point" transform="translate(122.04,164.38)" d="M3,0A3,3 0 1,1 0,-3A3,3 0 0,1 3,0Z" style="opacity: 1; stroke-width: 0px; fill: rgb(231, 76, 60); fill-opacity: 1;"/><path class="point" transform="translate(125.19,177.29)" d="M3,0A3,3 0 1,1 0,-3A3,3 0 0,1 3,0Z" style="opacity: 1; stroke-width: 0px; fill: rgb(231, 76, 60); fill-opacity: 1;"/><path class="point" transform="translate(128.34,162.64)" d="M3,0A3,3 0 1,1 0,-3A3,3 0 0,1 3,0Z" style="opacity: 1; stroke-width: 0px; fill: rgb(231, 76, 60); fill-opacity: 1;"/><path class="point" transform="translate(131.49,76.71)" d="M3,0A3,3 0 1,1 0,-3A3,3 0 0,1 3,0Z" style="opacity: 1; stroke-width: 0px; fill: rgb(231, 76, 60); fill-opacity: 1;"/><path class="point" transform="translate(134.63,236.89)" d="M3,0A3,3 0 1,1 0,-3A3,3 0 0,1 3,0Z" style="opacity: 1; stroke-width: 0px; fill: rgb(231, 76, 60); fill-opacity: 1;"/><path class="point" transform="translate(137.78,131.6)" d="M3,0A3,3 0 1,1 0,-3A3,3 0 0,1 3,0Z" style="opacity: 1; stroke-width: 0px; fill: rgb(231, 76, 60); fill-opacity: 1;"/><path class="point" transform="translate(140.93,122.16)" d="M3,0A3,3 0 1,1 0,-3A3,3 0 0,1 3,0Z" style="opacity: 1; stroke-width: 0px; fill: rgb(231, 76, 60); fill-opacity: 1;"/><path class="point" transform="translate(144.08,131.84)" d="M3,0A3,3 0 1,1 0,-3A3,3 0 0,1 3,0Z" style="opacity: 1; stroke-width: 0px; fill: rgb(231, 76, 60); fill-opacity: 1;"/><path class="point" transform="translate(147.23,159.66)" d="M3,0A3,3 0 1,1 0,-3A3,3 0 0,1 3,0Z" style="opacity: 1; stroke-width: 0px; fill: rgb(231, 76, 60); fill-opacity: 1;"/><path class="point" transform="translate(150.38,121.66)" d="M3,0A3,3 0 1,1 0,-3A3,3 0 0,1 3,0Z" style="opacity: 1; stroke-width: 0px; fill: rgb(231, 76, 60); fill-opacity: 1;"/><path class="point" transform="translate(153.52,137.06)" d="M3,0A3,3 0 1,1 0,-3A3,3 0 0,1 3,0Z" style="opacity: 1; stroke-width: 0px; fill: rgb(231, 76, 60); fill-opacity: 1;"/><path class="point" transform="translate(156.67,130.35)" d="M3,0A3,3 0 1,1 0,-3A3,3 0 0,1 3,0Z" style="opacity: 1; stroke-width: 0px; fill: rgb(231, 76, 60); fill-opacity: 1;"/><path class="point" transform="translate(159.82,241.12)" d="M3,0A3,3 0 1,1 0,-3A3,3 0 0,1 3,0Z" style="opacity: 1; stroke-width: 0px; fill: rgb(231, 76, 60); fill-opacity: 1;"/><path class="point" transform="translate(162.97,130.6)" d="M3,0A3,3 0 1,1 0,-3A3,3 0 0,1 3,0Z" style="opacity: 1; stroke-width: 0px; fill: rgb(231, 76, 60); fill-opacity: 1;"/><path class="point" transform="translate(166.12,136.07)" d="M3,0A3,3 0 1,1 0,-3A3,3 0 0,1 3,0Z" style="opacity: 1; stroke-width: 0px; fill: rgb(231, 76, 60); fill-opacity: 1;"/><path class="point" transform="translate(169.26,225.72)" d="M3,0A3,3 0 1,1 0,-3A3,3 0 0,1 3,0Z" style="opacity: 1; stroke-width: 0px; fill: rgb(231, 76, 60); fill-opacity: 1;"/><path class="point" transform="translate(172.41,152.95)" d="M3,0A3,3 0 1,1 0,-3A3,3 0 0,1 3,0Z" style="opacity: 1; stroke-width: 0px; fill: rgb(231, 76, 60); fill-opacity: 1;"/><path class="point" transform="translate(175.56,196.17)" d="M3,0A3,3 0 1,1 0,-3A3,3 0 0,1 3,0Z" style="opacity: 1; stroke-width: 0px; fill: rgb(231, 76, 60); fill-opacity: 1;"/><path class="point" transform="translate(178.71,229.2)" d="M3,0A3,3 0 1,1 0,-3A3,3 0 0,1 3,0Z" style="opacity: 1; stroke-width: 0px; fill: rgb(231, 76, 60); fill-opacity: 1;"/><path class="point" transform="translate(181.86,190.21)" d="M3,0A3,3 0 1,1 0,-3A3,3 0 0,1 3,0Z" style="opacity: 1; stroke-width: 0px; fill: rgb(231, 76, 60); fill-opacity: 1;"/><path class="point" transform="translate(185,108.25)" d="M3,0A3,3 0 1,1 0,-3A3,3 0 0,1 3,0Z" style="opacity: 1; stroke-width: 0px; fill: rgb(231, 76, 60); fill-opacity: 1;"/><path class="point" transform="translate(188.15,122.9)" d="M3,0A3,3 0 1,1 0,-3A3,3 0 0,1 3,0Z" style="opacity: 1; stroke-width: 0px; fill: rgb(231, 76, 60); fill-opacity: 1;"/><path class="point" transform="translate(191.3,100.8)" d="M3,0A3,3 0 1,1 0,-3A3,3 0 0,1 3,0Z" style="opacity: 1; stroke-width: 0px; fill: rgb(231, 76, 60); fill-opacity: 1;"/><path class="point" transform="translate(194.45,156.43)" d="M3,0A3,3 0 1,1 0,-3A3,3 0 0,1 3,0Z" style="opacity: 1; stroke-width: 0px; fill: rgb(231, 76, 60); fill-opacity: 1;"/><path class="point" transform="translate(197.6,94.34)" d="M3,0A3,3 0 1,1 0,-3A3,3 0 0,1 3,0Z" style="opacity: 1; stroke-width: 0px; fill: rgb(231, 76, 60); fill-opacity: 1;"/><path class="point" transform="translate(200.74,152.95)" d="M3,0A3,3 0 1,1 0,-3A3,3 0 0,1 3,0Z" style="opacity: 1; stroke-width: 0px; fill: rgb(231, 76, 60); fill-opacity: 1;"/><path class="point" transform="translate(203.89,255.77)" d="M3,0A3,3 0 1,1 0,-3A3,3 0 0,1 3,0Z" style="opacity: 1; stroke-width: 0px; fill: rgb(231, 76, 60); fill-opacity: 1;"/><path class="point" transform="translate(207.04,179.28)" d="M3,0A3,3 0 1,1 0,-3A3,3 0 0,1 3,0Z" style="opacity: 1; stroke-width: 0px; fill: rgb(231, 76, 60); fill-opacity: 1;"/><path class="point" transform="translate(210.19,166.61)" d="M3,0A3,3 0 1,1 0,-3A3,3 0 0,1 3,0Z" style="opacity: 1; stroke-width: 0px; fill: rgb(231, 76, 60); fill-opacity: 1;"/><path class="point" transform="translate(213.34,118.43)" d="M3,0A3,3 0 1,1 0,-3A3,3 0 0,1 3,0Z" style="opacity: 1; stroke-width: 0px; fill: rgb(231, 76, 60); fill-opacity: 1;"/><path class="point" transform="translate(216.48,255.77)" d="M3,0A3,3 0 1,1 0,-3A3,3 0 0,1 3,0Z" style="opacity: 1; stroke-width: 0px; fill: rgb(231, 76, 60); fill-opacity: 1;"/><path class="point" transform="translate(219.63,166.12)" d="M3,0A3,3 0 1,1 0,-3A3,3 0 0,1 3,0Z" style="opacity: 1; stroke-width: 0px; fill: rgb(231, 76, 60); fill-opacity: 1;"/><path class="point" transform="translate(222.78,151.22)" d="M3,0A3,3 0 1,1 0,-3A3,3 0 0,1 3,0Z" style="opacity: 1; stroke-width: 0px; fill: rgb(231, 76, 60); fill-opacity: 1;"/><path class="point" transform="translate(225.93,237.14)" d="M3,0A3,3 0 1,1 0,-3A3,3 0 0,1 3,0Z" style="opacity: 1; stroke-width: 0px; fill: rgb(231, 76, 60); fill-opacity: 1;"/><path class="point" transform="translate(229.08,96.08)" d="M3,0A3,3 0 1,1 0,-3A3,3 0 0,1 3,0Z" style="opacity: 1; stroke-width: 0px; fill: rgb(231, 76, 60); fill-opacity: 1;"/><path class="point" transform="translate(232.22,130.6)" d="M3,0A3,3 0 1,1 0,-3A3,3 0 0,1 3,0Z" style="opacity: 1; stroke-width: 0px; fill: rgb(231, 76, 60); fill-opacity: 1;"/><path class="point" transform="translate(235.37,225.47)" d="M3,0A3,3 0 1,1 0,-3A3,3 0 0,1 3,0Z" style="opacity: 1; stroke-width: 0px; fill: rgb(231, 76, 60); fill-opacity: 1;"/><path class="point" transform="translate(238.52,106.76)" d="M3,0A3,3 0 1,1 0,-3A3,3 0 0,1 3,0Z" style="opacity: 1; stroke-width: 0px; fill: rgb(231, 76, 60); fill-opacity: 1;"/><path class="point" transform="translate(241.67,107.75)" d="M3,0A3,3 0 1,1 0,-3A3,3 0 0,1 3,0Z" style="opacity: 1; stroke-width: 0px; fill: rgb(231, 76, 60); fill-opacity: 1;"/><path class="point" transform="translate(244.82,218.77)" d="M3,0A3,3 0 1,1 0,-3A3,3 0 0,1 3,0Z" style="opacity: 1; stroke-width: 0px; fill: rgb(231, 76, 60); fill-opacity: 1;"/><path class="point" transform="translate(247.96,120.42)" d="M3,0A3,3 0 1,1 0,-3A3,3 0 0,1 3,0Z" style="opacity: 1; stroke-width: 0px; fill: rgb(231, 76, 60); fill-opacity: 1;"/><path class="point" transform="translate(251.11,100.3)" d="M3,0A3,3 0 1,1 0,-3A3,3 0 0,1 3,0Z" style="opacity: 1; stroke-width: 0px; fill: rgb(231, 76, 60); fill-opacity: 1;"/><path class="point" transform="translate(254.26,187.47)" d="M3,0A3,3 0 1,1 0,-3A3,3 0 0,1 3,0Z" style="opacity: 1; stroke-width: 0px; fill: rgb(231, 76, 60); fill-opacity: 1;"/><path class="point" transform="translate(257.41,183.25)" d="M3,0A3,3 0 1,1 0,-3A3,3 0 0,1 3,0Z" style="opacity: 1; stroke-width: 0px; fill: rgb(231, 76, 60); fill-opacity: 1;"/><path class="point" transform="translate(260.56,185.98)" d="M3,0A3,3 0 1,1 0,-3A3,3 0 0,1 3,0Z" style="opacity: 1; stroke-width: 0px; fill: rgb(231, 76, 60); fill-opacity: 1;"/><path class="point" transform="translate(263.7,164.87)" d="M3,0A3,3 0 1,1 0,-3A3,3 0 0,1 3,0Z" style="opacity: 1; stroke-width: 0px; fill: rgb(231, 76, 60); fill-opacity: 1;"/><path class="point" transform="translate(266.85,156.43)" d="M3,0A3,3 0 1,1 0,-3A3,3 0 0,1 3,0Z" style="opacity: 1; stroke-width: 0px; fill: rgb(231, 76, 60); fill-opacity: 1;"/><path class="point" transform="translate(270,142.27)" d="M3,0A3,3 0 1,1 0,-3A3,3 0 0,1 3,0Z" style="opacity: 1; stroke-width: 0px; fill: rgb(231, 76, 60); fill-opacity: 1;"/><path class="point" transform="translate(273.15,265.7)" d="M3,0A3,3 0 1,1 0,-3A3,3 0 0,1 3,0Z" style="opacity: 1; stroke-width: 0px; fill: rgb(231, 76, 60); fill-opacity: 1;"/><path class="point" transform="translate(276.3,225.97)" d="M3,0A3,3 0 1,1 0,-3A3,3 0 0,1 3,0Z" style="opacity: 1; stroke-width: 0px; fill: rgb(231, 76, 60); fill-opacity: 1;"/><path class="point" transform="translate(279.44,117.69)" d="M3,0A3,3 0 1,1 0,-3A3,3 0 0,1 3,0Z" style="opacity: 1; stroke-width: 0px; fill: rgb(231, 76, 60); fill-opacity: 1;"/><path class="point" transform="translate(282.59,49.64)" d="M3,0A3,3 0 1,1 0,-3A3,3 0 0,1 3,0Z" style="opacity: 1; stroke-width: 0px; fill: rgb(231, 76, 60); fill-opacity: 1;"/><path class="point" transform="translate(285.74,110.49)" d="M3,0A3,3 0 1,1 0,-3A3,3 0 0,1 3,0Z" style="opacity: 1; stroke-width: 0px; fill: rgb(231, 76, 60); fill-opacity: 1;"/><path class="point" transform="translate(288.89,223.98)" d="M3,0A3,3 0 1,1 0,-3A3,3 0 0,1 3,0Z" style="opacity: 1; stroke-width: 0px; fill: rgb(231, 76, 60); fill-opacity: 1;"/><path class="point" transform="translate(292.04,165.62)" d="M3,0A3,3 0 1,1 0,-3A3,3 0 0,1 3,0Z" style="opacity: 1; stroke-width: 0px; fill: rgb(231, 76, 60); fill-opacity: 1;"/><path class="point" transform="translate(295.18,249.31)" d="M3,0A3,3 0 1,1 0,-3A3,3 0 0,1 3,0Z" style="opacity: 1; stroke-width: 0px; fill: rgb(231, 76, 60); fill-opacity: 1;"/><path class="point" transform="translate(298.33,217.03)" d="M3,0A3,3 0 1,1 0,-3A3,3 0 0,1 3,0Z" style="opacity: 1; stroke-width: 0px; fill: rgb(231, 76, 60); fill-opacity: 1;"/><path class="point" transform="translate(301.48,170.59)" d="M3,0A3,3 0 1,1 0,-3A3,3 0 0,1 3,0Z" style="opacity: 1; stroke-width: 0px; fill: rgb(231, 76, 60); fill-opacity: 1;"/><path class="point" transform="translate(304.63,245.34)" d="M3,0A3,3 0 1,1 0,-3A3,3 0 0,1 3,0Z" style="opacity: 1; stroke-width: 0px; fill: rgb(231, 76, 60); fill-opacity: 1;"/><path class="point" transform="translate(307.78,164.63)" d="M3,0A3,3 0 1,1 0,-3A3,3 0 0,1 3,0Z" style="opacity: 1; stroke-width: 0px; fill: rgb(231, 76, 60); fill-opacity: 1;"/><path class="point" transform="translate(310.92,126.13)" d="M3,0A3,3 0 1,1 0,-3A3,3 0 0,1 3,0Z" style="opacity: 1; stroke-width: 0px; fill: rgb(231, 76, 60); fill-opacity: 1;"/><path class="point" transform="translate(314.07,248.82)" d="M3,0A3,3 0 1,1 0,-3A3,3 0 0,1 3,0Z" style="opacity: 1; stroke-width: 0px; fill: rgb(231, 76, 60); fill-opacity: 1;"/><path class="point" transform="translate(317.22,117.19)" d="M3,0A3,3 0 1,1 0,-3A3,3 0 0,1 3,0Z" style="opacity: 1; stroke-width: 0px; fill: rgb(231, 76, 60); fill-opacity: 1;"/><path class="point" transform="translate(320.37,248.32)" d="M3,0A3,3 0 1,1 0,-3A3,3 0 0,1 3,0Z" style="opacity: 1; stroke-width: 0px; fill: rgb(231, 76, 60); fill-opacity: 1;"/><path class="point" transform="translate(323.52,146.99)" d="M3,0A3,3 0 1,1 0,-3A3,3 0 0,1 3,0Z" style="opacity: 1; stroke-width: 0px; fill: rgb(231, 76, 60); fill-opacity: 1;"/><path class="point" transform="translate(326.66,136.81)" d="M3,0A3,3 0 1,1 0,-3A3,3 0 0,1 3,0Z" style="opacity: 1; stroke-width: 0px; fill: rgb(231, 76, 60); fill-opacity: 1;"/><path class="point" transform="translate(329.81,150.97)" d="M3,0A3,3 0 1,1 0,-3A3,3 0 0,1 3,0Z" style="opacity: 1; stroke-width: 0px; fill: rgb(231, 76, 60); fill-opacity: 1;"/><path class="point" transform="translate(332.96,204.36)" d="M3,0A3,3 0 1,1 0,-3A3,3 0 0,1 3,0Z" style="opacity: 1; stroke-width: 0px; fill: rgb(231, 76, 60); fill-opacity: 1;"/><path class="point" transform="translate(336.11,146.75)" d="M3,0A3,3 0 1,1 0,-3A3,3 0 0,1 3,0Z" style="opacity: 1; stroke-width: 0px; fill: rgb(231, 76, 60); fill-opacity: 1;"/><path class="point" transform="translate(339.26,138.05)" d="M3,0A3,3 0 1,1 0,-3A3,3 0 0,1 3,0Z" style="opacity: 1; stroke-width: 0px; fill: rgb(231, 76, 60); fill-opacity: 1;"/><path class="point" transform="translate(342.4,161.4)" d="M3,0A3,3 0 1,1 0,-3A3,3 0 0,1 3,0Z" style="opacity: 1; stroke-width: 0px; fill: rgb(231, 76, 60); fill-opacity: 1;"/><path class="point" transform="translate(345.55,238.88)" d="M3,0A3,3 0 1,1 0,-3A3,3 0 0,1 3,0Z" style="opacity: 1; stroke-width: 0px; fill: rgb(231, 76, 60); fill-opacity: 1;"/><path class="point" transform="translate(348.7,78.2)" d="M3,0A3,3 0 1,1 0,-3A3,3 0 0,1 3,0Z" style="opacity: 1; stroke-width: 0px; fill: rgb(231, 76, 60); fill-opacity: 1;"/><path class="point" transform="translate(351.85,234.41)" d="M3,0A3,3 0 1,1 0,-3A3,3 0 0,1 3,0Z" style="opacity: 1; stroke-width: 0px; fill: rgb(231, 76, 60); fill-opacity: 1;"/><path class="point" transform="translate(355,204.61)" d="M3,0A3,3 0 1,1 0,-3A3,3 0 0,1 3,0Z" style="opacity: 1; stroke-width: 0px; fill: rgb(231, 76, 60); fill-opacity: 1;"/><path class="point" transform="translate(358.14,224.97)" d="M3,0A3,3 0 1,1 0,-3A3,3 0 0,1 3,0Z" style="opacity: 1; stroke-width: 0px; fill: rgb(231, 76, 60); fill-opacity: 1;"/><path class="point" transform="translate(361.29,174.06)" d="M3,0A3,3 0 1,1 0,-3A3,3 0 0,1 3,0Z" style="opacity: 1; stroke-width: 0px; fill: rgb(231, 76, 60); fill-opacity: 1;"/><path class="point" transform="translate(364.44,211.32)" d="M3,0A3,3 0 1,1 0,-3A3,3 0 0,1 3,0Z" style="opacity: 1; stroke-width: 0px; fill: rgb(231, 76, 60); fill-opacity: 1;"/><path class="point" transform="translate(367.59,183.75)" d="M3,0A3,3 0 1,1 0,-3A3,3 0 0,1 3,0Z" style="opacity: 1; stroke-width: 0px; fill: rgb(231, 76, 60); fill-opacity: 1;"/><path class="point" transform="translate(370.74,150.47)" d="M3,0A3,3 0 1,1 0,-3A3,3 0 0,1 3,0Z" style="opacity: 1; stroke-width: 0px; fill: rgb(231, 76, 60); fill-opacity: 1;"/><path class="point" transform="translate(373.88,156.68)" d="M3,0A3,3 0 1,1 0,-3A3,3 0 0,1 3,0Z" style="opacity: 1; stroke-width: 0px; fill: rgb(231, 76, 60); fill-opacity: 1;"/><path class="point" transform="translate(377.03,142.52)" d="M3,0A3,3 0 1,1 0,-3A3,3 0 0,1 3,0Z" style="opacity: 1; stroke-width: 0px; fill: rgb(231, 76, 60); fill-opacity: 1;"/><path class="point" transform="translate(380.18,122.16)" d="M3,0A3,3 0 1,1 0,-3A3,3 0 0,1 3,0Z" style="opacity: 1; stroke-width: 0px; fill: rgb(231, 76, 60); fill-opacity: 1;"/><path class="point" transform="translate(383.33,151.22)" d="M3,0A3,3 0 1,1 0,-3A3,3 0 0,1 3,0Z" style="opacity: 1; stroke-width: 0px; fill: rgb(231, 76, 60); fill-opacity: 1;"/><path class="point" transform="translate(386.48,207.59)" d="M3,0A3,3 0 1,1 0,-3A3,3 0 0,1 3,0Z" style="opacity: 1; stroke-width: 0px; fill: rgb(231, 76, 60); fill-opacity: 1;"/><path class="point" transform="translate(389.63,158.91)" d="M3,0A3,3 0 1,1 0,-3A3,3 0 0,1 3,0Z" style="opacity: 1; stroke-width: 0px; fill: rgb(231, 76, 60); fill-opacity: 1;"/><path class="point" transform="translate(392.77,130.35)" d="M3,0A3,3 0 1,1 0,-3A3,3 0 0,1 3,0Z" style="opacity: 1; stroke-width: 0px; fill: rgb(231, 76, 60); fill-opacity: 1;"/><path class="point" transform="translate(395.92,150.72)" d="M3,0A3,3 0 1,1 0,-3A3,3 0 0,1 3,0Z" style="opacity: 1; stroke-width: 0px; fill: rgb(231, 76, 60); fill-opacity: 1;"/><path class="point" transform="translate(399.07,207.59)" d="M3,0A3,3 0 1,1 0,-3A3,3 0 0,1 3,0Z" style="opacity: 1; stroke-width: 0px; fill: rgb(231, 76, 60); fill-opacity: 1;"/><path class="point" transform="translate(402.22,182.01)" d="M3,0A3,3 0 1,1 0,-3A3,3 0 0,1 3,0Z" style="opacity: 1; stroke-width: 0px; fill: rgb(231, 76, 60); fill-opacity: 1;"/><path class="point" transform="translate(405.37,172.82)" d="M3,0A3,3 0 1,1 0,-3A3,3 0 0,1 3,0Z" style="opacity: 1; stroke-width: 0px; fill: rgb(231, 76, 60); fill-opacity: 1;"/><path class="point" transform="translate(408.51,109)" d="M3,0A3,3 0 1,1 0,-3A3,3 0 0,1 3,0Z" style="opacity: 1; stroke-width: 0px; fill: rgb(231, 76, 60); fill-opacity: 1;"/><path class="point" transform="translate(411.66,159.91)" d="M3,0A3,3 0 1,1 0,-3A3,3 0 0,1 3,0Z" style="opacity: 1; stroke-width: 0px; fill: rgb(231, 76, 60); fill-opacity: 1;"/><path class="point" transform="translate(414.81,109.74)" d="M3,0A3,3 0 1,1 0,-3A3,3 0 0,1 3,0Z" style="opacity: 1; stroke-width: 0px; fill: rgb(231, 76, 60); fill-opacity: 1;"/><path class="point" transform="translate(417.96,175.06)" d="M3,0A3,3 0 1,1 0,-3A3,3 0 0,1 3,0Z" style="opacity: 1; stroke-width: 0px; fill: rgb(231, 76, 60); fill-opacity: 1;"/><path class="point" transform="translate(421.11,227.95)" d="M3,0A3,3 0 1,1 0,-3A3,3 0 0,1 3,0Z" style="opacity: 1; stroke-width: 0px; fill: rgb(231, 76, 60); fill-opacity: 1;"/><path class="point" transform="translate(424.25,140.78)" d="M3,0A3,3 0 1,1 0,-3A3,3 0 0,1 3,0Z" style="opacity: 1; stroke-width: 0px; fill: rgb(231, 76, 60); fill-opacity: 1;"/><path class="point" transform="translate(427.4,227.95)" d="M3,0A3,3 0 1,1 0,-3A3,3 0 0,1 3,0Z" style="opacity: 1; stroke-width: 0px; fill: rgb(231, 76, 60); fill-opacity: 1;"/><path class="point" transform="translate(430.55,87.14)" d="M3,0A3,3 0 1,1 0,-3A3,3 0 0,1 3,0Z" style="opacity: 1; stroke-width: 0px; fill: rgb(231, 76, 60); fill-opacity: 1;"/><path class="point" transform="translate(433.7,156.18)" d="M3,0A3,3 0 1,1 0,-3A3,3 0 0,1 3,0Z" style="opacity: 1; stroke-width: 0px; fill: rgb(231, 76, 60); fill-opacity: 1;"/><path class="point" transform="translate(436.85,245.34)" d="M3,0A3,3 0 1,1 0,-3A3,3 0 0,1 3,0Z" style="opacity: 1; stroke-width: 0px; fill: rgb(231, 76, 60); fill-opacity: 1;"/><path class="point" transform="translate(439.99,154.2)" d="M3,0A3,3 0 1,1 0,-3A3,3 0 0,1 3,0Z" style="opacity: 1; stroke-width: 0px; fill: rgb(231, 76, 60); fill-opacity: 1;"/><path class="point" transform="translate(443.14,108.25)" d="M3,0A3,3 0 1,1 0,-3A3,3 0 0,1 3,0Z" style="opacity: 1; stroke-width: 0px; fill: rgb(231, 76, 60); fill-opacity: 1;"/><path class="point" transform="translate(446.29,243.6)" d="M3,0A3,3 0 1,1 0,-3A3,3 0 0,1 3,0Z" style="opacity: 1; stroke-width: 0px; fill: rgb(231, 76, 60); fill-opacity: 1;"/><path class="point" transform="translate(449.44,62.56)" d="M3,0A3,3 0 1,1 0,-3A3,3 0 0,1 3,0Z" style="opacity: 1; stroke-width: 0px; fill: rgb(231, 76, 60); fill-opacity: 1;"/><path class="point" transform="translate(452.59,145.01)" d="M3,0A3,3 0 1,1 0,-3A3,3 0 0,1 3,0Z" style="opacity: 1; stroke-width: 0px; fill: rgb(231, 76, 60); fill-opacity: 1;"/><path class="point" transform="translate(455.73,18.35)" d="M3,0A3,3 0 1,1 0,-3A3,3 0 0,1 3,0Z" style="opacity: 1; stroke-width: 0px; fill: rgb(231, 76, 60); fill-opacity: 1;"/><path class="point" transform="translate(458.88,210.07)" d="M3,0A3,3 0 1,1 0,-3A3,3 0 0,1 3,0Z" style="opacity: 1; stroke-width: 0px; fill: rgb(231, 76, 60); fill-opacity: 1;"/><path class="point" transform="translate(462.03,107.01)" d="M3,0A3,3 0 1,1 0,-3A3,3 0 0,1 3,0Z" style="opacity: 1; stroke-width: 0px; fill: rgb(231, 76, 60); fill-opacity: 1;"/><path class="point" transform="translate(465.18,118.93)" d="M3,0A3,3 0 1,1 0,-3A3,3 0 0,1 3,0Z" style="opacity: 1; stroke-width: 0px; fill: rgb(231, 76, 60); fill-opacity: 1;"/><path class="point" transform="translate(468.33,261.73)" d="M3,0A3,3 0 1,1 0,-3A3,3 0 0,1 3,0Z" style="opacity: 1; stroke-width: 0px; fill: rgb(231, 76, 60); fill-opacity: 1;"/><path class="point" transform="translate(471.47,173.32)" d="M3,0A3,3 0 1,1 0,-3A3,3 0 0,1 3,0Z" style="opacity: 1; stroke-width: 0px; fill: rgb(231, 76, 60); fill-opacity: 1;"/><path class="point" transform="translate(474.62,42.19)" d="M3,0A3,3 0 1,1 0,-3A3,3 0 0,1 3,0Z" style="opacity: 1; stroke-width: 0px; fill: rgb(231, 76, 60); fill-opacity: 1;"/><path class="point" transform="translate(477.77,125.39)" d="M3,0A3,3 0 1,1 0,-3A3,3 0 0,1 3,0Z" style="opacity: 1; stroke-width: 0px; fill: rgb(231, 76, 60); fill-opacity: 1;"/><path class="point" transform="translate(480.92,103.28)" d="M3,0A3,3 0 1,1 0,-3A3,3 0 0,1 3,0Z" style="opacity: 1; stroke-width: 0px; fill: rgb(231, 76, 60); fill-opacity: 1;"/><path class="point" transform="translate(484.07,171.08)" d="M3,0A3,3 0 1,1 0,-3A3,3 0 0,1 3,0Z" style="opacity: 1; stroke-width: 0px; fill: rgb(231, 76, 60); fill-opacity: 1;"/><path class="point" transform="translate(487.21,165.12)" d="M3,0A3,3 0 1,1 0,-3A3,3 0 0,1 3,0Z" style="opacity: 1; stroke-width: 0px; fill: rgb(231, 76, 60); fill-opacity: 1;"/><path class="point" transform="translate(490.36,129.61)" d="M3,0A3,3 0 1,1 0,-3A3,3 0 0,1 3,0Z" style="opacity: 1; stroke-width: 0px; fill: rgb(231, 76, 60); fill-opacity: 1;"/><path class="point" transform="translate(493.51,252.04)" d="M3,0A3,3 0 1,1 0,-3A3,3 0 0,1 3,0Z" style="opacity: 1; stroke-width: 0px; fill: rgb(231, 76, 60); fill-opacity: 1;"/><path class="point" transform="translate(496.66,141.03)" d="M3,0A3,3 0 1,1 0,-3A3,3 0 0,1 3,0Z" style="opacity: 1; stroke-width: 0px; fill: rgb(231, 76, 60); fill-opacity: 1;"/><path class="point" transform="translate(499.81,219.26)" d="M3,0A3,3 0 1,1 0,-3A3,3 0 0,1 3,0Z" style="opacity: 1; stroke-width: 0px; fill: rgb(231, 76, 60); fill-opacity: 1;"/><path class="point" transform="translate(502.95,153.45)" d="M3,0A3,3 0 1,1 0,-3A3,3 0 0,1 3,0Z" style="opacity: 1; stroke-width: 0px; fill: rgb(231, 76, 60); fill-opacity: 1;"/><path class="point" transform="translate(506.1,158.91)" d="M3,0A3,3 0 1,1 0,-3A3,3 0 0,1 3,0Z" style="opacity: 1; stroke-width: 0px; fill: rgb(231, 76, 60); fill-opacity: 1;"/><path class="point" transform="translate(509.25,239.63)" d="M3,0A3,3 0 1,1 0,-3A3,3 0 0,1 3,0Z" style="opacity: 1; stroke-width: 0px; fill: rgb(231, 76, 60); fill-opacity: 1;"/></g><g class="text"/></g></g></g></g><path class="xlines-above crisp" d="M0,0" style="fill: none;"/><path class="ylines-above crisp" d="M0,0" style="fill: none;"/><g class="overlines-above"/><g class="xaxislayer-above"><g class="xtick"><text text-anchor="start" x="0" y="405" transform="translate(110.75,0) rotate(90,0,399)" style="font-family: Arial; font-size: 12px; fill: rgb(42, 63, 95); fill-opacity: 1; white-space: pre; opacity: 1;">8/6/2024</text></g><g class="xtick"><text text-anchor="start" x="0" y="405" transform="translate(126.49000000000001,0) rotate(90,0,399)" style="font-family: Arial; font-size: 12px; fill: rgb(42, 63, 95); fill-opacity: 1; white-space: pre; opacity: 1;">5/28/2024</text></g><g class="xtick"><text text-anchor="start" x="0" y="405" transform="translate(142.23,0) rotate(90,0,399)" style="font-family: Arial; font-size: 12px; fill: rgb(42, 63, 95); fill-opacity: 1; white-space: pre; opacity: 1;">8/22/2024</text></g><g class="xtick"><text text-anchor="start" x="0" y="405" transform="translate(157.97,0) rotate(90,0,399)" style="font-family: Arial; font-size: 12px; fill: rgb(42, 63, 95); fill-opacity: 1; white-space: pre; opacity: 1;">6/16/2024</text></g><g class="xtick"><text text-anchor="start" x="0" y="405" transform="translate(173.70999999999998,0) rotate(90,0,399)" style="font-family: Arial; font-size: 12px; fill: rgb(42, 63, 95); fill-opacity: 1; white-space: pre; opacity: 1;">7/18/2024</text></g><g class="xtick"><text text-anchor="start" x="0" y="405" transform="translate(189.45,0) rotate(90,0,399)" style="font-family: Arial; font-size: 12px; fill: rgb(42, 63, 95); fill-opacity: 1; white-space: pre; opacity: 1;">7/27/2024</text></g><g class="xtick"><text text-anchor="start" x="0" y="405" transform="translate(205.19,0) rotate(90,0,399)" style="font-family: Arial; font-size: 12px; fill: rgb(42, 63, 95); fill-opacity: 1; white-space: pre; opacity: 1;">8/19/2024</text></g><g class="xtick"><text text-anchor="start" x="0" y="405" transform="translate(220.93,0) rotate(90,0,399)" style="font-family: Arial; font-size: 12px; fill: rgb(42, 63, 95); fill-opacity: 1; white-space: pre; opacity: 1;">5/22/2024</text></g><g class="xtick"><text text-anchor="start" x="0" y="405" transform="translate(236.67,0) rotate(90,0,399)" style="font-family: Arial; font-size: 12px; fill: rgb(42, 63, 95); fill-opacity: 1; white-space: pre; opacity: 1;">5/10/2024</text></g><g class="xtick"><text text-anchor="start" x="0" y="405" transform="translate(252.41,0) rotate(90,0,399)" style="font-family: Arial; font-size: 12px; fill: rgb(42, 63, 95); fill-opacity: 1; white-space: pre; opacity: 1;">7/30/2024</text></g><g class="xtick"><text text-anchor="start" x="0" y="405" transform="translate(268.15,0) rotate(90,0,399)" style="font-family: Arial; font-size: 12px; fill: rgb(42, 63, 95); fill-opacity: 1; white-space: pre; opacity: 1;">8/27/2024</text></g><g class="xtick"><text text-anchor="start" x="0" y="405" transform="translate(283.89,0) rotate(90,0,399)" style="font-family: Arial; font-size: 12px; fill: rgb(42, 63, 95); fill-opacity: 1; white-space: pre; opacity: 1;">7/14/2024</text></g><g class="xtick"><text text-anchor="start" x="0" y="405" transform="translate(299.63,0) rotate(90,0,399)" style="font-family: Arial; font-size: 12px; fill: rgb(42, 63, 95); fill-opacity: 1; white-space: pre; opacity: 1;">5/23/2024</text></g><g class="xtick"><text text-anchor="start" x="0" y="405" transform="translate(315.37,0) rotate(90,0,399)" style="font-family: Arial; font-size: 12px; fill: rgb(42, 63, 95); fill-opacity: 1; white-space: pre; opacity: 1;">6/22/2024</text></g><g class="xtick"><text text-anchor="start" x="0" y="405" transform="translate(331.11,0) rotate(90,0,399)" style="font-family: Arial; font-size: 12px; fill: rgb(42, 63, 95); fill-opacity: 1; white-space: pre; opacity: 1;">6/5/2024</text></g><g class="xtick"><text text-anchor="start" x="0" y="405" transform="translate(346.85,0) rotate(90,0,399)" style="font-family: Arial; font-size: 12px; fill: rgb(42, 63, 95); fill-opacity: 1; white-space: pre; opacity: 1;">9/11/2024</text></g><g class="xtick"><text text-anchor="start" x="0" y="405" transform="translate(362.59,0) rotate(90,0,399)" style="font-family: Arial; font-size: 12px; fill: rgb(42, 63, 95); fill-opacity: 1; white-space: pre; opacity: 1;">9/26/2024</text></g><g class="xtick"><text text-anchor="start" x="0" y="405" transform="translate(378.33,0) rotate(90,0,399)" style="font-family: Arial; font-size: 12px; fill: rgb(42, 63, 95); fill-opacity: 1; white-space: pre; opacity: 1;">8/17/2024</text></g><g class="xtick"><text text-anchor="start" x="0" y="405" transform="translate(394.07,0) rotate(90,0,399)" style="font-family: Arial; font-size: 12px; fill: rgb(42, 63, 95); fill-opacity: 1; white-space: pre; opacity: 1;">8/25/2024</text></g><g class="xtick"><text text-anchor="start" x="0" y="405" transform="translate(409.81,0) rotate(90,0,399)" style="font-family: Arial; font-size: 12px; fill: rgb(42, 63, 95); fill-opacity: 1; white-space: pre; opacity: 1;">8/8/2024</text></g><g class="xtick"><text text-anchor="start" x="0" y="405" transform="translate(425.55,0) rotate(90,0,399)" style="font-family: Arial; font-size: 12px; fill: rgb(42, 63, 95); fill-opacity: 1; white-space: pre; opacity: 1;">7/4/2024</text></g><g class="xtick"><text text-anchor="start" x="0" y="405" transform="translate(441.29,0) rotate(90,0,399)" style="font-family: Arial; font-size: 12px; fill: rgb(42, 63, 95); fill-opacity: 1; white-space: pre; opacity: 1;">6/7/2024</text></g><g class="xtick"><text text-anchor="start" x="0" y="405" transform="translate(457.03,0) rotate(90,0,399)" style="font-family: Arial; font-size: 12px; fill: rgb(42, 63, 95); fill-opacity: 1; white-space: pre; opacity: 1;">9/20/2024</text></g><g class="xtick"><text text-anchor="start" x="0" y="405" transform="translate(472.77,0) rotate(90,0,399)" style="font-family: Arial; font-size: 12px; fill: rgb(42, 63, 95); fill-opacity: 1; white-space: pre; opacity: 1;">5/18/2024</text></g><g class="xtick"><text text-anchor="start" x="0" y="405" transform="translate(488.51,0) rotate(90,0,399)" style="font-family: Arial; font-size: 12px; fill: rgb(42, 63, 95); fill-opacity: 1; white-space: pre; opacity: 1;">6/14/2024</text></g><g class="xtick"><text text-anchor="start" x="0" y="405" transform="translate(504.25,0) rotate(90,0,399)" style="font-family: Arial; font-size: 12px; fill: rgb(42, 63, 95); fill-opacity: 1; white-space: pre; opacity: 1;">5/16/2024</text></g><g class="xtick"><text text-anchor="start" x="0" y="405" transform="translate(519.99,0) rotate(90,0,399)" style="font-family: Arial; font-size: 12px; fill: rgb(42, 63, 95); fill-opacity: 1; white-space: pre; opacity: 1;">7/12/2024</text></g><g class="xtick"><text text-anchor="start" x="0" y="405" transform="translate(535.73,0) rotate(90,0,399)" style="font-family: Arial; font-size: 12px; fill: rgb(42, 63, 95); fill-opacity: 1; white-space: pre; opacity: 1;">5/24/2024</text></g><g class="xtick"><text text-anchor="start" x="0" y="405" transform="translate(551.47,0) rotate(90,0,399)" style="font-family: Arial; font-size: 12px; fill: rgb(42, 63, 95); fill-opacity: 1; white-space: pre; opacity: 1;">7/8/2024</text></g><g class="xtick"><text text-anchor="start" x="0" y="405" transform="translate(567.21,0) rotate(90,0,399)" style="font-family: Arial; font-size: 12px; fill: rgb(42, 63, 95); fill-opacity: 1; white-space: pre; opacity: 1;">5/25/2024</text></g><g class="xtick"><text text-anchor="start" x="0" y="405" transform="translate(582.95,0) rotate(90,0,399)" style="font-family: Arial; font-size: 12px; fill: rgb(42, 63, 95); fill-opacity: 1; white-space: pre; opacity: 1;">5/1/2024</text></g></g><g class="yaxislayer-above"><g class="ytick"><text text-anchor="end" x="79" y="4.199999999999999" transform="translate(0,379.11)" style="font-family: Arial; font-size: 12px; fill: rgb(42, 63, 95); fill-opacity: 1; white-space: pre; opacity: 1;">0</text></g><g class="ytick"><text text-anchor="end" x="79" y="4.199999999999999" style="font-family: Arial; font-size: 12px; fill: rgb(42, 63, 95); fill-opacity: 1; white-space: pre; opacity: 1;" transform="translate(0,329.44)">200</text></g><g class="ytick"><text text-anchor="end" x="79" y="4.199999999999999" style="font-family: Arial; font-size: 12px; fill: rgb(42, 63, 95); fill-opacity: 1; white-space: pre; opacity: 1;" transform="translate(0,279.78)">400</text></g><g class="ytick"><text text-anchor="end" x="79" y="4.199999999999999" style="font-family: Arial; font-size: 12px; fill: rgb(42, 63, 95); fill-opacity: 1; white-space: pre; opacity: 1;" transform="translate(0,230.11)">600</text></g><g class="ytick"><text text-anchor="end" x="79" y="4.199999999999999" style="font-family: Arial; font-size: 12px; fill: rgb(42, 63, 95); fill-opacity: 1; white-space: pre; opacity: 1;" transform="translate(0,180.44)">800</text></g><g class="ytick"><text text-anchor="end" x="79" y="4.199999999999999" style="font-family: Arial; font-size: 12px; fill: rgb(42, 63, 95); fill-opacity: 1; white-space: pre; opacity: 1;" transform="translate(0,130.77)">1000</text></g></g><g class="overaxes-above"/></g></g><g class="polarlayer"/><g class="smithlayer"/><g class="ternarylayer"/><g class="geolayer"/><g class="funnelarealayer"/><g class="pielayer"/><g class="iciclelayer"/><g class="treemaplayer"/><g class="sunburstlayer"/><g class="glimages"/><defs id="topdefs-af3d0a"><g class="clips"/></defs><g class="layer-above"><g class="imagelayer"/><g class="shapelayer"/></g><g class="infolayer"><g class="g-gtitle"><text class="gtitle" x="35" y="50" text-anchor="start" dy="0em" style="opacity: 1; font-family: Arial; font-size: 16px; fill: rgb(42, 63, 95); fill-opacity: 1; white-space: pre;">Job Posting Trends Over Time</text></g><g class="g-xtitle"><text class="xtitle" x="350" y="487.3" text-anchor="middle" style="opacity: 1; font-family: Arial; font-size: 14px; fill: rgb(42, 63, 95); fill-opacity: 1; white-space: pre;">POSTED</text></g><g class="g-ytitle"><text class="ytitle" transform="rotate(-90,27.6,246)" x="27.6" y="246" text-anchor="middle" style="opacity: 1; font-family: Arial; font-size: 14px; fill: rgb(42, 63, 95); fill-opacity: 1; white-space: pre;">Number of Job Postings</text></g></g></svg>